<svg xmlns="http://www.w3.org/2000/svg" viewBox="0 0 256 256" role="img" aria-label="Construction stock avatar">
  <defs>
    <linearGradient id="bg" x1="0" y1="0" x2="1" y2="1">
      <stop offset="0" stop-color="#072314"/>
      <stop offset="0.55" stop-color="#14532d"/>
      <stop offset="1" stop-color="#065f46"/>
    </linearGradient>
    <radialGradient id="glow" cx="30%" cy="22%" r="75%">
      <stop offset="0" stop-color="#fde68a" stop-opacity="0.28"/>
      <stop offset="1" stop-color="#000000" stop-opacity="0"/>
    </radialGradient>
  </defs>
  <rect width="256" height="256" rx="44" fill="url(#bg)"/>
  <rect width="256" height="256" rx="44" fill="url(#glow)"/>
  <path d="M44 182c24-48 58-72 102-72 44 0 78 20 94 60" fill="none" stroke="#dcfce7" stroke-opacity="0.22" stroke-width="12" stroke-linecap="round"/>
  <g fill="none" stroke="#dcfce7" stroke-width="12" stroke-linecap="round" stroke-linejoin="round" opacity="0.92">
    <path d="M72 150c0-28 22-50 56-50s56 22 56 50"/>
    <path d="M88 150v22c0 18 18 30 40 30s40-12 40-30v-22"/>
    <path d="M104 112v22m24-22v22m24-22v22"/>
  </g>
</svg>

