<svg xmlns="http://www.w3.org/2000/svg" viewBox="0 0 256 256" role="img" aria-label="Education stock avatar">
  <defs>
    <linearGradient id="bg" x1="0" y1="0" x2="1" y2="1">
      <stop offset="0" stop-color="#082415"/>
      <stop offset="0.55" stop-color="#14532d"/>
      <stop offset="1" stop-color="#0b4f2f"/>
    </linearGradient>
    <radialGradient id="glow" cx="70%" cy="26%" r="75%">
      <stop offset="0" stop-color="#ddd6fe" stop-opacity="0.22"/>
      <stop offset="1" stop-color="#000000" stop-opacity="0"/>
    </radialGradient>
  </defs>
  <rect width="256" height="256" rx="44" fill="url(#bg)"/>
  <rect width="256" height="256" rx="44" fill="url(#glow)"/>
  <path d="M44 186c26-46 58-66 98-66 44 0 76 18 90 56" fill="none" stroke="#dcfce7" stroke-opacity="0.22" stroke-width="12" stroke-linecap="round"/>
  <g fill="none" stroke="#dcfce7" stroke-width="12" stroke-linecap="round" stroke-linejoin="round" opacity="0.92">
    <path d="M76 110c22-10 40-10 52 0 12-10 30-10 52 0v76c-22-10-40-10-52 0-12-10-30-10-52 0v-76Z"/>
    <path d="M128 110v76"/>
    <path d="M92 128h24m48 0h-24"/>
  </g>
</svg>

