<svg xmlns="http://www.w3.org/2000/svg" viewBox="0 0 256 256" role="img" aria-label="Hospitality stock avatar">
  <defs>
    <linearGradient id="bg" x1="0" y1="0" x2="1" y2="1">
      <stop offset="0" stop-color="#082415"/>
      <stop offset="0.55" stop-color="#14532d"/>
      <stop offset="1" stop-color="#0f766e"/>
    </linearGradient>
    <radialGradient id="steam" cx="62%" cy="22%" r="80%">
      <stop offset="0" stop-color="#f1f5f9" stop-opacity="0.20"/>
      <stop offset="1" stop-color="#000000" stop-opacity="0"/>
    </radialGradient>
  </defs>
  <rect width="256" height="256" rx="44" fill="url(#bg)"/>
  <rect width="256" height="256" rx="44" fill="url(#steam)"/>
  <path d="M44 184c24-40 54-58 92-58 50 0 82 18 96 52" fill="none" stroke="#dcfce7" stroke-opacity="0.22" stroke-width="12" stroke-linecap="round"/>
  <g fill="none" stroke="#dcfce7" stroke-width="12" stroke-linecap="round" stroke-linejoin="round" opacity="0.92">
    <path d="M92 112h76v40c0 20-16 36-36 36h-4c-20 0-36-16-36-36v-40Z"/>
    <path d="M168 122h10c10 0 18 8 18 18s-8 18-18 18h-10"/>
    <path d="M110 92c0 8-6 10-6 18s6 10 6 18"/>
    <path d="M138 92c0 8-6 10-6 18s6 10 6 18"/>
  </g>
</svg>

