<svg xmlns="http://www.w3.org/2000/svg" viewBox="0 0 256 256" role="img" aria-label="Manufacturing stock avatar">
  <defs>
    <linearGradient id="bg" x1="0" y1="0" x2="1" y2="1">
      <stop offset="0" stop-color="#071f12"/>
      <stop offset="0.55" stop-color="#14532d"/>
      <stop offset="1" stop-color="#0f3d26"/>
    </linearGradient>
    <radialGradient id="smoke" cx="65%" cy="20%" r="80%">
      <stop offset="0" stop-color="#e2e8f0" stop-opacity="0.18"/>
      <stop offset="1" stop-color="#000000" stop-opacity="0"/>
    </radialGradient>
  </defs>
  <rect width="256" height="256" rx="44" fill="url(#bg)"/>
  <rect width="256" height="256" rx="44" fill="url(#smoke)"/>
  <path d="M44 186c28-40 58-58 92-58 48 0 78 18 96 54" fill="none" stroke="#dcfce7" stroke-opacity="0.22" stroke-width="12" stroke-linecap="round"/>
  <g fill="none" stroke="#dcfce7" stroke-width="12" stroke-linecap="round" stroke-linejoin="round" opacity="0.92">
    <path d="M128 84l14 8 14-8 14 8 0 16-14 8-14-8-14 8-14-8 0-16 14-8Z"/>
    <path d="M92 132l12 6 0 14-12 6-12-6 0-14 12-6Z"/>
    <path d="M176 132l12 6 0 14-12 6-12-6 0-14 12-6Z"/>
    <path d="M116 112v20m24-20v20"/>
    <path d="M104 142h48"/>
  </g>
</svg>

