<svg xmlns="http://www.w3.org/2000/svg" viewBox="0 0 256 256" role="img" aria-label="Finance stock avatar">
  <defs>
    <linearGradient id="bg" x1="0" y1="0" x2="1" y2="1">
      <stop offset="0" stop-color="#0a2a1a"/>
      <stop offset="0.6" stop-color="#14532d"/>
      <stop offset="1" stop-color="#0b4f2f"/>
    </linearGradient>
    <radialGradient id="glow" cx="40%" cy="30%" r="70%">
      <stop offset="0" stop-color="#fef9c3" stop-opacity="0.35"/>
      <stop offset="1" stop-color="#000000" stop-opacity="0"/>
    </radialGradient>
  </defs>
  <rect width="256" height="256" rx="44" fill="url(#bg)"/>
  <rect width="256" height="256" rx="44" fill="url(#glow)"/>
  <path d="M44 176c26-44 56-64 92-64 46 0 76 18 96 58" fill="none" stroke="#dcfce7" stroke-opacity="0.26" stroke-width="12" stroke-linecap="round"/>
  <g fill="none" stroke="#dcfce7" stroke-width="12" stroke-linecap="round" stroke-linejoin="round" opacity="0.92">
    <path d="M128 78c-34 0-62 20-62 50s28 50 62 50 62-20 62-50-28-50-62-50Z"/>
    <path d="M104 116c6-10 18-16 32-16 18 0 32 10 32 24 0 13-11 22-28 24l-10 1c-15 2-26 10-26 23 0 15 16 26 36 26 16 0 30-6 38-16"/>
  </g>
</svg>

