<svg xmlns="http://www.w3.org/2000/svg" viewBox="0 0 256 256" role="img" aria-label="Logistics stock avatar">
  <defs>
    <linearGradient id="bg" x1="0" y1="0" x2="1" y2="1">
      <stop offset="0" stop-color="#071f12"/>
      <stop offset="0.55" stop-color="#14532d"/>
      <stop offset="1" stop-color="#166534"/>
    </linearGradient>
    <radialGradient id="trail" cx="35%" cy="25%" r="75%">
      <stop offset="0" stop-color="#93c5fd" stop-opacity="0.18"/>
      <stop offset="1" stop-color="#000000" stop-opacity="0"/>
    </radialGradient>
  </defs>
  <rect width="256" height="256" rx="44" fill="url(#bg)"/>
  <rect width="256" height="256" rx="44" fill="url(#trail)"/>
  <path d="M44 184c26-44 58-62 98-62 42 0 74 18 90 56" fill="none" stroke="#dcfce7" stroke-opacity="0.22" stroke-width="12" stroke-linecap="round"/>
  <g fill="none" stroke="#dcfce7" stroke-width="12" stroke-linecap="round" stroke-linejoin="round" opacity="0.92">
    <path d="M72 152v-44h94v44"/>
    <path d="M166 152h18l16-20v-24h-34"/>
    <path d="M92 108v44m22-44v44m22-44v44"/>
    <path d="M98 176a12 12 0 1 0 0.1 0Z"/>
    <path d="M176 176a12 12 0 1 0 0.1 0Z"/>
  </g>
</svg>

