<svg xmlns="http://www.w3.org/2000/svg" viewBox="0 0 256 256" role="img" aria-label="Tech stock avatar">
  <defs>
    <linearGradient id="bg" x1="0" y1="0" x2="1" y2="1">
      <stop offset="0" stop-color="#0b2f1d"/>
      <stop offset="0.55" stop-color="#14532d"/>
      <stop offset="1" stop-color="#0f766e"/>
    </linearGradient>
    <radialGradient id="glow" cx="35%" cy="25%" r="70%">
      <stop offset="0" stop-color="#bbf7d0" stop-opacity="0.45"/>
      <stop offset="1" stop-color="#000000" stop-opacity="0"/>
    </radialGradient>
  </defs>
  <rect width="256" height="256" rx="44" fill="url(#bg)"/>
  <rect width="256" height="256" rx="44" fill="url(#glow)"/>
  <path d="M42 172c22-38 54-56 96-56s74 18 96 56" fill="none" stroke="#dcfce7" stroke-opacity="0.35" stroke-width="10" stroke-linecap="round"/>
  <g fill="none" stroke="#dcfce7" stroke-width="10" stroke-linecap="round" stroke-linejoin="round" opacity="0.9">
    <path d="M92 160v-26a18 18 0 0 1 18-18h36a18 18 0 0 1 18 18v26"/>
    <path d="M80 160h96"/>
    <path d="M112 106V86m32 20V86"/>
    <path d="M112 86h32"/>
  </g>
  <g fill="#dcfce7" opacity="0.9">
    <circle cx="92" cy="160" r="7"/>
    <circle cx="164" cy="160" r="7"/>
    <circle cx="112" cy="106" r="6"/>
    <circle cx="144" cy="106" r="6"/>
  </g>
</svg>

