<svg xmlns="http://www.w3.org/2000/svg" viewBox="0 0 720 420" role="img" aria-label="">
  <defs>
    <linearGradient id="bg" x1="0" x2="1" y1="0" y2="1">
      <stop offset="0" stop-color="#eefbfe"/>
      <stop offset=".58" stop-color="#ffffff"/>
      <stop offset="1" stop-color="#fff7e7"/>
    </linearGradient>
    <linearGradient id="accent" x1="0" x2="1">
      <stop offset="0" stop-color="#12afcb"/>
      <stop offset="1" stop-color="#0f4f73"/>
    </linearGradient>
    <filter id="shadow" x="-20%" y="-20%" width="140%" height="150%">
      <feDropShadow dx="0" dy="24" stdDeviation="28" flood-color="#0f4f73" flood-opacity=".18"/>
    </filter>
  </defs>
  <rect width="720" height="420" rx="32" fill="url(#bg)"/>
  <circle cx="596" cy="56" r="72" fill="#12afcb" opacity=".09"/>
  <circle cx="612" cy="346" r="112" fill="#f2b84b" opacity=".14"/>
  <g filter="url(#shadow)">
    <rect x="214" y="82" width="360" height="224" rx="22" fill="#fff"/>
    <rect x="238" y="112" width="136" height="12" rx="6" fill="#dcecf1"/>
    <rect x="238" y="142" width="288" height="12" rx="6" fill="#edf4f6"/>
    <rect x="238" y="168" width="224" height="12" rx="6" fill="#edf4f6"/>
    <rect x="238" y="218" width="74" height="38" rx="12" fill="#e8f8fb"/>
    <rect x="326" y="218" width="74" height="38" rx="12" fill="#fff6e4"/>
    <rect x="414" y="218" width="112" height="38" rx="12" fill="url(#accent)"/>
  </g>
  <g filter="url(#shadow)">
    <rect x="90" y="142" width="188" height="132" rx="20" fill="#fff"/>
    <rect x="114" y="168" width="42" height="42" rx="14" fill="#e8f8fb"/>
    <path d="M127 190h16m-8-8v16" stroke="#12afcb" stroke-width="5" stroke-linecap="round"/>
    <rect x="168" y="170" width="74" height="10" rx="5" fill="#dcecf1"/>
    <rect x="168" y="192" width="58" height="10" rx="5" fill="#edf4f6"/>
    <rect x="114" y="232" width="116" height="11" rx="5.5" fill="#edf4f6"/>
  </g>
  <path d="M110 322c74-26 156-22 242-3 93 20 169 14 259-32" fill="none" stroke="#12afcb" stroke-width="10" stroke-linecap="round" opacity=".22"/>
</svg>
